<svg height="682pt" viewBox="-33 -21 682 682.66535" width="682pt" fill="#ffffff" xmlns="http://www.w3.org/2000/svg"><path d="m539.5 376.25c-16.183594 0-31.171875 5.171875-43.445312 13.921875l-67.210938-40.191406c2.464844-9.800781 3.78125-20.054688 3.78125-30.605469 0-11.484375-1.558594-22.609375-4.460938-33.183594l64.019532-39.300781c12.914062 10.53125 29.390625 16.859375 47.316406 16.859375 41.355469 0 75-33.644531 75-75 0-41.359375-33.644531-75-75-75s-75 33.640625-75 75c0 5.300781.558594 10.476562 1.613281 15.472656l-60.644531 37.230469c-18.085938-22.800781-43.910156-39.207031-73.46875-45.203125v-50.550781c29.09375-10.320313 50-38.105469 50-70.699219 0-41.359375-33.644531-75-75-75s-75 33.640625-75 75c0 32.59375 20.902344 60.378906 50 70.699219v50.554687c-30.085938 6.097656-56.296875 22.980469-74.421875 46.421875l-60.253906-36.03125c1.414062-5.738281 2.175781-11.726562 2.175781-17.894531 0-41.351562-33.644531-75-75-75-41.351562 0-75 33.648438-75 75 0 41.355469 33.648438 75 75 75 17.019531 0 32.722656-5.707031 45.320312-15.292969l65.605469 39.226563c-2.640625 10.128906-4.050781 20.75-4.050781 31.691406 0 11.097656 1.453125 21.855469 4.164062 32.109375l-65.511718 40.222656c-12.632813-9.6875-28.414063-15.457031-45.527344-15.457031-41.351562 0-75 33.640625-75 75 0 41.355469 33.648438 75 75 75 41.355469 0 75-33.644531 75-75 0-6.085938-.75-11.996094-2.121094-17.667969l60.488282-37.132812c18.117187 23.246093 44.210937 39.980469 74.132812 46.050781v51.800781c-29.097656 10.316407-50 38.109375-50 70.699219 0 41.355469 33.644531 75 75 75s75-33.644531 75-75c0-32.589844-20.898438-60.378906-50-70.699219v-51.800781c30.449219-6.171875 56.933594-23.394531 75.078125-47.28125l60.167969 35.980469c-1.777344 6.382812-2.746094 13.105469-2.746094 20.050781 0 41.355469 33.644531 75 75 75s75-33.644531 75-75c0-41.359375-33.644531-75-75-75zm0-212.5c13.78125 0 25 11.214844 25 25s-11.21875 25-25 25c-13.785156 0-25-11.214844-25-25s11.214844-25 25-25zm-465 50c-13.785156 0-25-11.214844-25-25s11.214844-25 25-25 25 11.214844 25 25-11.214844 25-25 25zm0 262.5c-13.785156 0-25-11.214844-25-25s11.214844-25 25-25 25 11.214844 25 25-11.214844 25-25 25zm232.5-426.25c13.78125 0 25 11.214844 25 25s-11.21875 25-25 25c-13.785156 0-25-11.214844-25-25s11.214844-25 25-25zm0 540c-13.785156 0-25-11.21875-25-25 0-13.785156 11.214844-25 25-25 13.78125 0 25 11.214844 25 25 0 13.78125-11.21875 25-25 25zm0-195c-41.699219 0-75.625-33.925781-75.625-75.625s33.925781-75.625 75.625-75.625 75.625 33.925781 75.625 75.625-33.925781 75.625-75.625 75.625zm232.5 81.25c-13.785156 0-25-11.214844-25-25s11.214844-25 25-25c13.78125 0 25 11.214844 25 25s-11.21875 25-25 25zm0 0"/></svg>
